<mxfile host="Electron" modified="2024-01-12T08:06:28.059Z" agent="Mozilla/5.0 (Macintosh; Intel Mac OS X 10_15_7) AppleWebKit/537.36 (KHTML, like Gecko) draw.io/22.1.11 Chrome/114.0.5735.289 Electron/25.9.8 Safari/537.36" etag="rDnnmLxrD1yyXCfD7RaI" version="22.1.11" type="device">
  <diagram name="第 1 页" id="nNuZjRYyRh5vmxUFnaq4">
    <mxGraphModel dx="954" dy="617" grid="0" gridSize="10" guides="1" tooltips="1" connect="1" arrows="1" fold="1" page="1" pageScale="1" pageWidth="1169" pageHeight="1654" math="0" shadow="0">
      <root>
        <mxCell id="0" />
        <mxCell id="1" parent="0" />
        <mxCell id="I0-z-BxgTcOIAmbcD6h4-1" value="" style="rounded=0;whiteSpace=wrap;html=1;strokeColor=none;fillColor=none;" vertex="1" parent="1">
          <mxGeometry x="107" y="142" width="739" height="130" as="geometry" />
        </mxCell>
        <mxCell id="DBWMiYDxB3cP8TI8gNXN-1" value="" style="rounded=0;whiteSpace=wrap;html=1;" parent="1" vertex="1">
          <mxGeometry x="132" y="181" width="687" height="61" as="geometry" />
        </mxCell>
        <mxCell id="DBWMiYDxB3cP8TI8gNXN-3" value="&lt;b&gt;&lt;font style=&quot;font-size: 18px;&quot; face=&quot;Times New Roman&quot;&gt;TIMELINE&lt;/font&gt;&lt;/b&gt;" style="text;html=1;strokeColor=none;fillColor=none;align=center;verticalAlign=middle;whiteSpace=wrap;rounded=0;" parent="1" vertex="1">
          <mxGeometry x="403" y="149" width="102" height="30" as="geometry" />
        </mxCell>
        <mxCell id="DBWMiYDxB3cP8TI8gNXN-4" value="&lt;font style=&quot;font-size: 18px;&quot; face=&quot;Times New Roman&quot;&gt;&lt;b&gt;Worker 1&lt;/b&gt;&lt;br&gt;&lt;/font&gt;" style="text;html=1;strokeColor=none;fillColor=none;align=center;verticalAlign=middle;whiteSpace=wrap;rounded=0;" parent="1" vertex="1">
          <mxGeometry x="132" y="196" width="102" height="30" as="geometry" />
        </mxCell>
        <mxCell id="DBWMiYDxB3cP8TI8gNXN-5" value="" style="endArrow=none;html=1;rounded=0;entryX=0.137;entryY=0;entryDx=0;entryDy=0;entryPerimeter=0;" parent="1" target="DBWMiYDxB3cP8TI8gNXN-1" edge="1">
          <mxGeometry width="50" height="50" relative="1" as="geometry">
            <mxPoint x="226" y="241" as="sourcePoint" />
            <mxPoint x="225.003" y="182.32" as="targetPoint" />
          </mxGeometry>
        </mxCell>
        <mxCell id="DBWMiYDxB3cP8TI8gNXN-6" value="&lt;font color=&quot;#ffffff&quot; face=&quot;Times New Roman&quot;&gt;&lt;b&gt;task 1&lt;/b&gt;&lt;/font&gt;" style="rounded=1;whiteSpace=wrap;html=1;fillColor=#023047;" parent="1" vertex="1">
          <mxGeometry x="227" y="196" width="53" height="30" as="geometry" />
        </mxCell>
        <mxCell id="DBWMiYDxB3cP8TI8gNXN-12" value="&lt;font color=&quot;#ffffff&quot; face=&quot;Times New Roman&quot;&gt;&lt;b&gt;task 1&lt;/b&gt;&lt;/font&gt;" style="rounded=1;whiteSpace=wrap;html=1;fillColor=#023047;" parent="1" vertex="1">
          <mxGeometry x="286" y="196" width="53" height="30" as="geometry" />
        </mxCell>
        <mxCell id="DBWMiYDxB3cP8TI8gNXN-13" value="&lt;font color=&quot;#ffffff&quot; face=&quot;Times New Roman&quot;&gt;&lt;b&gt;task 1&lt;/b&gt;&lt;/font&gt;" style="rounded=1;whiteSpace=wrap;html=1;fillColor=#023047;" parent="1" vertex="1">
          <mxGeometry x="345" y="196" width="53" height="30" as="geometry" />
        </mxCell>
        <mxCell id="DBWMiYDxB3cP8TI8gNXN-14" value="&lt;font color=&quot;#ffffff&quot; face=&quot;Times New Roman&quot;&gt;&lt;b&gt;task 1&lt;/b&gt;&lt;/font&gt;" style="rounded=1;whiteSpace=wrap;html=1;fillColor=#023047;" parent="1" vertex="1">
          <mxGeometry x="404" y="196" width="53" height="30" as="geometry" />
        </mxCell>
        <mxCell id="DBWMiYDxB3cP8TI8gNXN-15" value="&lt;font color=&quot;#ffffff&quot; face=&quot;Times New Roman&quot;&gt;&lt;b&gt;task 1&lt;/b&gt;&lt;/font&gt;" style="rounded=1;whiteSpace=wrap;html=1;fillColor=#023047;" parent="1" vertex="1">
          <mxGeometry x="463" y="196" width="53" height="30" as="geometry" />
        </mxCell>
        <mxCell id="DBWMiYDxB3cP8TI8gNXN-16" value="&lt;font color=&quot;#ffffff&quot; face=&quot;Times New Roman&quot;&gt;&lt;b&gt;task 1&lt;/b&gt;&lt;/font&gt;" style="rounded=1;whiteSpace=wrap;html=1;fillColor=#023047;" parent="1" vertex="1">
          <mxGeometry x="522" y="196" width="53" height="30" as="geometry" />
        </mxCell>
        <mxCell id="DBWMiYDxB3cP8TI8gNXN-17" value="&lt;font color=&quot;#ffffff&quot; face=&quot;Times New Roman&quot;&gt;&lt;b&gt;task 1&lt;/b&gt;&lt;/font&gt;" style="rounded=1;whiteSpace=wrap;html=1;fillColor=#023047;" parent="1" vertex="1">
          <mxGeometry x="581" y="196" width="53" height="30" as="geometry" />
        </mxCell>
        <mxCell id="DBWMiYDxB3cP8TI8gNXN-18" value="&lt;font color=&quot;#ffffff&quot; face=&quot;Times New Roman&quot;&gt;&lt;b&gt;task 1&lt;/b&gt;&lt;/font&gt;" style="rounded=1;whiteSpace=wrap;html=1;fillColor=#023047;" parent="1" vertex="1">
          <mxGeometry x="640" y="196" width="53" height="30" as="geometry" />
        </mxCell>
        <mxCell id="DBWMiYDxB3cP8TI8gNXN-19" value="&lt;font color=&quot;#ffffff&quot; face=&quot;Times New Roman&quot;&gt;&lt;b&gt;task 1&lt;/b&gt;&lt;/font&gt;" style="rounded=1;whiteSpace=wrap;html=1;fillColor=#023047;" parent="1" vertex="1">
          <mxGeometry x="699" y="196" width="53" height="30" as="geometry" />
        </mxCell>
        <mxCell id="DBWMiYDxB3cP8TI8gNXN-20" value="&lt;font color=&quot;#ffffff&quot; face=&quot;Times New Roman&quot;&gt;&lt;b&gt;task 1&lt;/b&gt;&lt;/font&gt;" style="rounded=1;whiteSpace=wrap;html=1;fillColor=#023047;" parent="1" vertex="1">
          <mxGeometry x="758" y="196" width="53" height="30" as="geometry" />
        </mxCell>
      </root>
    </mxGraphModel>
  </diagram>
</mxfile>
